<svg width="48" height="51" viewBox="0 0 48 51" fill="none" xmlns="http://www.w3.org/2000/svg">
<path opacity="0.4" d="M44 22C44 33.0456 35.0456 42 24 42C12.9543 42 4 33.0456 4 22C4 10.9543 12.9543 2 24 2C35.0456 2 44 10.9543 44 22Z" fill="#F9A474"/>
<path d="M44 22C44 33.0456 35.0456 42 24 42C12.9543 42 4 33.0456 4 22C4 10.9543 12.9543 2 24 2C35.0456 2 44 10.9543 44 22Z" stroke="#F9A474" stroke-width="3"/>
<path d="M4 22C8.56062 26.8578 15.8217 30 24 30C32.1784 30 39.4394 26.8578 44 22" stroke="#F9A474" stroke-width="3"/>
<path d="M24 2V42" stroke="#F9A474" stroke-width="3" stroke-linecap="round" stroke-linejoin="round"/>
<path d="M10.3112 8C9.54776 11 10.0801 16 13.1324 20C16.3416 24.2056 18.3649 30 10.7386 36" stroke="#F9A474" stroke-width="3" stroke-linecap="round" stroke-linejoin="round"/>
<path d="M37.6888 8C38.4522 11 37.9198 16 34.8676 20C31.6584 24.2056 29.6352 30 37.2614 36" stroke="#F9A474" stroke-width="3" stroke-linecap="round" stroke-linejoin="round"/>
</svg>
