<svg width="48" height="50" viewBox="0 0 48 50" fill="none" xmlns="http://www.w3.org/2000/svg">
<path opacity="0.4" d="M40.2844 18.5912C43.215 16.5276 43.8788 12.5436 41.7686 9.68324C36.99 3.20556 28.0002 -1.16587 20.984 4.88446C18.3267 7.1759 16.2119 9.98732 14.7982 13.2002L12.002 19.5548V20C12.002 25.5408 18.8547 31.9952 24.8112 33.9392C24.9388 33.9808 25.0686 34.0098 25.2014 34.0292C25.9714 33.462 26.8166 33.0076 27.8108 32.7656L37.7048 30.3564C42.7882 29.1186 44.0496 22.6486 39.7856 19.682L39.133 19.2408C39.6666 18.9726 40.0158 18.7804 40.2844 18.5912Z" fill="#F682A5"/>
<path d="M11.9652 19.4924C11.7911 24.9374 18.2073 31.6486 24.2232 33.7584M11.9652 19.4924C11.356 20.5378 5.13444 25.5254 5.02566 27.638C4.49852 31.8336 11.6266 39.7156 17.1227 39.9848C19.1751 40.276 22.022 36.8222 24.9078 34.2562C26.4972 32.8428 28.7878 32.5158 37.9566 30.2406C41.2838 29.6622 45.281 23.923 39.3554 19.0582M11.9652 19.4924C13.8216 15.09 17.031 6.5794 23.325 3.21856C25.881 1.7663 32.5198 0.42916 39.025 6.61354C41.263 8.49574 45.1424 12.6187 41.5316 17.369C39.1242 20.1746 35.4842 19.3624 35.1306 24.2146" stroke="#F682A5" stroke-width="3" stroke-linecap="round" stroke-linejoin="round"/>
</svg>
