<svg width="48" height="51" viewBox="0 0 48 51" fill="none" xmlns="http://www.w3.org/2000/svg">
<path d="M44.002 22C44.002 33.0456 35.0476 42 24.002 42C12.9563 42 4.00195 33.0456 4.00195 22C4.00195 10.9543 12.9563 2 24.002 2C35.0476 2 44.002 10.9543 44.002 22Z" stroke="#C3B2E7" stroke-width="3"/>
<path opacity="0.4" fill-rule="evenodd" clip-rule="evenodd" d="M44.003 21.9998C44.003 27.2756 41.9602 32.0742 38.6226 35.648L31.2346 34.3108L28.7314 41.4376C27.2154 41.805 25.632 41.9998 24.003 41.9998C21.168 41.9998 18.4707 41.41 16.0273 40.3462L16.1057 32.3328L8.0095 32.4198H6.9284C5.32698 29.8012 4.311 26.7858 4.0625 23.5554L10.396 18.8774L7.11386 11.4407L7.07552 11.343C9.56584 7.39562 13.3987 4.38006 17.933 2.9375L18.0029 2.9998L24.036 7.24462L30.003 2.9998L30.08 2.93976C34.1532 4.23734 37.66 6.8045 40.1354 10.1761L40.0626 10.3915L37.6098 16.7794L43.9968 21.4966L43.9982 21.562C44.0014 21.7076 44.003 21.8536 44.003 21.9998ZM24.5876 16.6979C24.239 16.434 23.767 16.434 23.4184 16.6979L18.9129 20.108C18.5644 20.3718 18.4185 20.8394 18.5517 21.2664L20.2726 26.7842C20.4058 27.211 20.7876 27.5 21.2184 27.5H26.7876C27.2184 27.5 27.6002 27.211 27.7334 26.7842L29.4542 21.2664C29.5874 20.8394 29.4416 20.3718 29.093 20.108L24.5876 16.6979Z" fill="#C3B2E7"/>
<path d="M23.4174 16.6979C23.766 16.434 24.238 16.434 24.5866 16.6979L29.092 20.108C29.4406 20.3718 29.5864 20.8394 29.4532 21.2664L27.7324 26.7842C27.5992 27.211 27.2174 27.5 26.7866 27.5H21.2174C20.7866 27.5 20.4048 27.211 20.2716 26.7842L18.5507 21.2664C18.4176 20.8394 18.5634 20.3718 18.9119 20.108L23.4174 16.6979Z" stroke="#C3B2E7" stroke-width="3"/>
<path d="M24.002 16V8M30.002 20L38.002 17M28.002 28L32.002 34M20.002 27L16.002 32M18.002 21L10.002 19" stroke="#C3B2E7" stroke-width="3" stroke-linecap="round" stroke-linejoin="round"/>
<path d="M18.002 3L24.035 7.24482L30.002 3M4.00195 23.5996L10.3951 18.8776L7.11291 11.4409M38.9426 35.7062L31.2336 34.311L28.533 42M40.0616 10.3917L37.609 16.7796L44.002 21.5014M16.0218 40.8118L16.1048 32.333L8.00857 32.42" stroke="#C3B2E7" stroke-width="3" stroke-linejoin="round"/>
</svg>
