<svg width="48" height="49" viewBox="0 0 48 49" fill="none" xmlns="http://www.w3.org/2000/svg">
<path opacity="0.4" d="M35 19C35 12.9249 30.0752 8 24 8C18.2465 8 13.5247 12.4172 13.0408 18.0454C7.96796 18.5282 4 22.8006 4 28C4 33.5228 8.47716 38 14 38H35C39.9706 38 44 33.9706 44 29C44 24.0294 39.9706 20 35 20L34.9552 20.0002C34.9848 19.6708 35 19.3372 35 19Z" fill="#B8CEDC"/>
<path d="M34.9552 20.0002C34.97 20 34.985 20 35 20C39.9706 20 44 24.0294 44 29C44 33.9706 39.9706 38 35 38H14C8.47716 38 4 33.5228 4 28C4 22.8006 7.96796 18.5282 13.0408 18.0454M34.9552 20.0002C34.9848 19.6708 35 19.3372 35 19C35 12.9249 30.0752 8 24 8C18.2465 8 13.5247 12.4172 13.0408 18.0454M34.9552 20.0002C34.7506 22.269 33.8572 24.3392 32.4856 26M13.0408 18.0454C13.3565 18.0154 13.6765 18 14 18C16.2516 18 18.3295 18.7442 20.001 20" stroke="#B8CEDC" stroke-width="3" stroke-linecap="round" stroke-linejoin="round"/>
<path d="M5.91878 16.3874C4.4373 10.9436 7.71844 5.34794 13.2474 3.88926M5.91878 16.3874L4 16.8936M5.91878 16.3874C6.28718 17.7412 6.9154 18.958 7.73646 20M13.2474 3.88926L12.7333 2M13.2474 3.88926C17.3335 2.81126 21.5036 4.29438 24 7.33922M6.953 8.64594L4.9288 7.49256M22.2814 2.9145L21.114 4.90988" stroke="#B8CEDC" stroke-width="3" stroke-linecap="round"/>
</svg>
