<svg width="48" height="51" viewBox="0 0 48 51" fill="none" xmlns="http://www.w3.org/2000/svg">
<path opacity="0.4" d="M34 22C34 27.5228 29.5228 32 24 32C18.4772 32 14 27.5228 14 22C14 16.4772 18.4772 12 24 12C29.5228 12 34 16.4772 34 22Z" fill="#FEDF6F"/>
<path d="M34 22C34 27.5228 29.5228 32 24 32C18.4772 32 14 27.5228 14 22C14 16.4772 18.4772 12 24 12C29.5228 12 34 16.4772 34 22Z" stroke="#FEDF6F" stroke-width="3"/>
<path d="M24 2C23.2454 2.66666 22.189 4.4 24 6M24 38C24.7546 38.6666 25.811 40.4 24 42M39 7.00542C37.937 6.93964 35.8506 7.44586 36.0084 9.99694M10.9915 33C11.0573 34.063 10.5511 36.1494 8 35.9916M10.0054 7C9.93958 8.06404 10.4463 10.1526 13 9.99458M36 33.0052C37.063 32.943 39.1494 33.4216 38.9916 35.8336M44 22C43.3334 21.2454 41.6 20.189 40 22M8 21C7.33334 21.7546 5.6 22.811 4 21" stroke="#FEDF6F" stroke-width="3" stroke-linecap="round"/>
</svg>
