<svg width="48" height="48" viewBox="0 0 48 48" fill="none" xmlns="http://www.w3.org/2000/svg">
<path opacity="0.4" d="M21.4368 8.72166L30 26.9982C25.6666 26.9982 24.3478 24.7124 19.8261 22.4266C16.2087 20.5982 11.1594 20.9028 9.65218 21.2838L15.7148 16.9976C16.3317 16.5614 16.6402 16.3434 16.7387 16.0114C16.8373 15.6794 16.6979 15.3284 16.4189 14.6262L15.5704 12.49C15.2531 11.6912 15.0944 11.2918 14.8077 11.002C14.7078 10.9011 14.5974 10.8111 14.4784 10.7335C14.137 10.5109 13.7138 10.4358 12.8675 10.2857L6.3663 9.13222C4.9974 8.88936 4 7.69942 4 6.30914C4 4.56254 5.54836 3.22174 7.27702 3.4714L16.0686 4.74114C17.6521 4.96984 18.4438 5.08418 19.1042 5.46164C19.3795 5.619 19.6351 5.80854 19.8656 6.02624C20.4186 6.5485 20.758 7.27288 21.4368 8.72166Z" fill="#B8CEDC"/>
<path d="M21.4368 8.72166L30 26.9982C25.6666 26.9982 24.3478 24.7124 19.8261 22.4266C16.2087 20.5982 11.1594 20.9028 9.65218 21.2838L15.7148 16.9976C16.3317 16.5614 16.6402 16.3434 16.7387 16.0114C16.8373 15.6794 16.6979 15.3284 16.4189 14.6262L15.5704 12.49C15.2531 11.6912 15.0944 11.2918 14.8077 11.002C14.7078 10.9011 14.5974 10.8111 14.4784 10.7335C14.137 10.5109 13.7138 10.4358 12.8675 10.2857L6.3663 9.13222C4.9974 8.88936 4 7.69942 4 6.30914C4 4.56254 5.54836 3.22174 7.27702 3.4714L16.0686 4.74114C17.6521 4.96984 18.4438 5.08418 19.1042 5.46164C19.3795 5.619 19.6351 5.80854 19.8656 6.02624C20.4186 6.5485 20.758 7.27288 21.4368 8.72166Z" stroke="#B8CEDC" stroke-width="3" stroke-linecap="round" stroke-linejoin="round"/>
<path d="M38 21.0039C41.3137 21.0039 44 18.3176 44 15.0039C44 11.6902 41.3137 9.00391 38 9.00391C34.6863 9.00391 32 11.6902 32 15.0039C32 18.3176 34.6863 21.0039 38 21.0039Z" stroke="#B8CEDC" stroke-width="3" stroke-linecap="round" stroke-linejoin="round"/>
<path d="M4 31.1686C6.11112 24.1054 15.537 27.3472 23 31.1686C30.463 34.99 38 37.4216 42 31.1686" stroke="#B8CEDC" stroke-width="3" stroke-linecap="round" stroke-linejoin="round"/>
</svg>
