<svg width="48" height="51" viewBox="0 0 48 51" fill="none" xmlns="http://www.w3.org/2000/svg">
<path d="M44.002 22C44.002 33.0456 35.0476 42 24.002 42C12.9563 42 4.00195 33.0456 4.00195 22C4.00195 10.9543 12.9563 2 24.002 2C35.0476 2 44.002 10.9543 44.002 22Z" stroke="#FEDF6F" stroke-width="3"/>
<path opacity="0.4" d="M18.002 14.0017C22.176 10.2291 32.6542 8.25811 41.002 12.0304L41.4498 12.2181C43.075 15.1104 44.002 18.4478 44.002 22.0018C44.002 22.2324 43.998 22.462 43.9904 22.6908C43.9942 22.6942 43.9982 22.6978 44.002 22.7012L43.9878 22.7602C43.9888 22.737 43.9896 22.7138 43.9904 22.6908C41.7148 20.6346 38.2502 19.474 33.6738 19.4712L33.779 20.0018C34.9574 25.791 31.4308 36.3784 24.002 42.0018C19.8217 42.0018 15.9409 40.7192 12.7317 38.5262L14.002 38.0018C15.8911 37.1454 18.5429 35.217 20.565 32.3152L20.002 32.0018C14.7511 29.481 8.31869 19.9206 8.00195 10.0017L8.19139 9.75167C10.3153 7.01447 13.1343 4.84359 16.3835 3.50391L16.2429 4.00173C15.6655 6.09831 15.5367 10.1632 17.6478 14.3507L18.002 14.0017Z" fill="#FEDF6F"/>
<path d="M16.2429 4C15.3511 7.2381 15.5295 15.1714 23.377 21M23.377 21C33.261 18.34 40.252 19.3 44.002 22.6996M23.377 21C24.507 30.3762 17.752 36.3 14.002 38" stroke="#FEDF6F" stroke-width="3" stroke-linecap="round" stroke-linejoin="round"/>
<path d="M18.002 14.0001C22.176 10.2275 32.6542 8.25652 41.002 12.0288" stroke="#FEDF6F" stroke-width="3" stroke-linejoin="round"/>
<path d="M33.779 20C34.9574 25.7894 31.4308 36.3766 24.002 42" stroke="#FEDF6F" stroke-width="3" stroke-linejoin="round"/>
<path d="M20.002 32C14.7511 29.4792 8.31869 19.919 8.00195 10" stroke="#FEDF6F" stroke-width="3" stroke-linejoin="round"/>
</svg>
