<svg width="48" height="51" viewBox="0 0 48 51" fill="none" xmlns="http://www.w3.org/2000/svg">
<path d="M20 6C20 8.20914 21.7908 10 24 10C26.2092 10 28 8.20914 28 6C28 3.79086 26.2092 2 24 2C21.7908 2 20 3.79086 20 6Z" stroke="#C7D78D" stroke-width="3"/>
<path opacity="0.4" d="M15.772 18C17.1435 20.7936 18.6088 23.4098 18.2704 26.6284C17.7294 31.7738 11.4902 33.7104 7.50044 36.0808C4.8865 37.6338 5.8638 42 9.07164 42C12.9609 42 16.4321 41.6896 19.9412 40.0402L23.8114 37.6586L27.7634 40.0402C31.3468 41.6896 34.8916 42 38.8632 42C42.139 42 43.137 37.6338 40.4678 36.0808C36.3934 33.7104 30.0222 31.7738 29.4696 26.6284C29.124 23.4098 30.6204 20.7936 32.021 18L32.3592 17.3906C30.1984 15.2921 27.25 14 24 14C20.7002 14 17.7115 15.3319 15.5421 17.4874L15.772 18Z" fill="#C7D78D"/>
<path d="M32.021 18C30.6204 20.7936 29.124 23.4098 29.4696 26.6284C30.0222 31.7738 36.3934 33.7104 40.4678 36.0808C43.137 37.6338 42.139 42 38.8632 42C34.8916 42 31.3468 41.6896 27.7634 40.0402L20.7366 35.8056C19.9164 35.428 18.9155 35.5034 18 35.8056" stroke="#C7D78D" stroke-width="3" stroke-linecap="round" stroke-linejoin="round"/>
<path d="M15.772 18C17.1435 20.7936 18.6088 23.4098 18.2704 26.6284C17.7294 31.7738 11.4902 33.7104 7.50044 36.0808C4.8865 37.6338 5.8638 42 9.07164 42C12.9609 42 16.4321 41.6896 19.9412 40.0402L26.8222 35.8056C27.7774 35.3566 28.9826 35.548 30 36" stroke="#C7D78D" stroke-width="3" stroke-linecap="round" stroke-linejoin="round"/>
<path d="M6 30C10.8917 30 13.0874 24.5898 13.7867 20.8582C13.9693 19.8842 14.2649 18.913 14.9125 18.1628C17.113 15.6135 20.368 14 24 14C27.632 14 30.887 15.6135 33.0874 18.1628C33.735 18.913 34.0308 19.8842 34.2134 20.8582C34.9126 24.5898 37.1082 30 42 30" stroke="#C7D78D" stroke-width="3" stroke-linecap="round" stroke-linejoin="round"/>
</svg>
